<?xml version="1.0" encoding="UTF-8" standalone="no"?>
<svg
   width="1600pt"
   height="343pt"
   viewBox="0 0 1600 343"
   version="1.1"
   id="svg11"
   sodipodi:docname="logo_nysse_yhdistettypolku.svg"
   inkscape:version="1.3.2 (091e20e, 2023-11-25, custom)"
   xmlns:inkscape="http://www.inkscape.org/namespaces/inkscape"
   xmlns:sodipodi="http://sodipodi.sourceforge.net/DTD/sodipodi-0.dtd"
   xmlns="http://www.w3.org/2000/svg"
   xmlns:svg="http://www.w3.org/2000/svg">
  <sodipodi:namedview
     id="namedview1"
     pagecolor="#505050"
     bordercolor="#eeeeee"
     borderopacity="1"
     inkscape:showpageshadow="0"
     inkscape:pageopacity="0"
     inkscape:pagecheckerboard="0"
     inkscape:deskcolor="#505050"
     inkscape:document-units="pt"
     inkscape:zoom="2.116875"
     inkscape:cx="1066.6667"
     inkscape:cy="228.87511"
     inkscape:window-width="5120"
     inkscape:window-height="1377"
     inkscape:window-x="-8"
     inkscape:window-y="-8"
     inkscape:window-maximized="1"
     inkscape:current-layer="svg11" />
  <defs
     id="defs11" />
  <path
     id="path1"
     d="M 35.000977 -0.4453125 C 31.459254 -0.38701639 27.865719 0.19922001 24.32373 1.3637695 C 9.2159016 6.3434454 -0.34801025 20.374064 -0.38818359 35.456543 C -0.38992513 35.398069 -0.39698116 35.339213 -0.3984375 35.280762 C -0.3984375 35.374512 -0.40576172 35.464844 -0.40576172 35.554688 L -0.40576172 36.011719 C -0.40489282 36.078778 -0.40700933 36.145306 -0.40576172 36.212402 L -0.40576172 304.34766 C -0.40576172 324.22654 15.711446 340.34326 35.594238 340.34326 C 55.47703 340.34326 71.594238 324.22654 71.594238 304.34766 L 71.594238 144.30176 C 92.357069 162.67189 118.5851 181.81395 151.97607 201.11719 C 214.96429 237.53903 258.07374 279.31644 270.2417 315.75 C 275.27685 330.82811 289.31642 340.35498 304.38281 340.35498 C 308.16015 340.35498 312.01221 339.75342 315.78955 338.4917 C 330.9512 333.42839 340.48868 319.24798 340.37549 304.08398 C 340.37742 304.15075 340.38565 304.21793 340.38721 304.28467 L 340.38721 303.66211 C 340.38674 303.63811 340.38772 303.61433 340.38721 303.59033 L 340.38721 35.559082 C 340.38721 15.672383 324.27 -0.44091797 304.38721 -0.44091797 C 284.50441 -0.44091797 268.38721 15.672383 268.38721 35.559082 L 268.38721 196.03418 C 240.33392 171.13781 210.14063 151.58174 188.0083 138.78516 C 124.81305 102.24613 81.718738 60.515589 69.785156 24.292969 C 64.729253 8.9506985 50.348441 -0.69792897 35.000977 -0.4453125 z M 406.74463 -0.28417969 C 395.20182 -0.53728463 383.74511 4.7627058 376.57471 14.894531 C 365.09034 31.105453 368.9258 53.551281 385.13672 65.031738 C 418.15622 88.414527 437.43019 118.4136 454.43408 144.88623 C 467.52269 165.25428 480.12569 184.83901 497.57373 196.14111 C 496.07087 195.18395 494.59022 194.1882 493.15576 193.11328 L 493.15576 306.21533 C 493.15576 326.07859 509.25734 342.18018 529.12061 342.18018 C 548.98777 342.18018 565.08545 326.07859 565.08545 306.21533 L 565.08545 193.04443 C 580.29763 181.46005 591.84557 163.49584 603.8042 144.88623 C 620.80809 118.4136 640.08646 88.414527 673.10596 65.031738 C 689.31297 53.551281 693.15282 31.105453 681.67236 14.894531 C 670.19191 -1.3163895 647.75389 -5.1528211 631.53516 6.3237305 C 587.11723 37.78073 561.78172 77.214385 543.28564 106.00342 C 538.9458 112.76122 533.63623 121.01563 529.12061 127.17188 C 524.60108 121.01563 519.29687 112.76122 514.95703 106.00342 C 496.45705 77.214385 471.12154 37.78073 426.70752 6.3237305 C 420.62696 2.0185589 413.67031 -0.13231672 406.74463 -0.28417969 z M 833.33203 0.22998047 C 757.93758 0.22998047 705.28564 41.190976 705.28564 99.839355 L 705.28564 100.75049 C 705.28564 163.75043 750.55525 185.9175 828.81299 202.9292 C 830.82358 203.34845 832.72326 203.76195 834.62109 204.17725 C 834.90353 204.25335 835.17168 204.35679 835.45752 204.42627 C 836.43799 204.66455 837.41357 204.84814 838.39014 205.00049 C 897.95258 218.35985 902.77002 229.85158 902.77002 244.38281 L 902.77002 245.29248 C 902.77002 264.83152 880.54684 277.95703 847.47656 277.95703 C 812.82035 277.95703 782.72263 267.99265 752.58984 246.48486 C 746.35547 242.28174 739.06249 240.22998 730.30078 240.22998 C 709.75783 240.22998 693.66357 254.83547 693.66357 273.47607 C 693.66357 284.46044 699.43312 294.73878 709.09717 300.97705 C 749.40572 327.93406 796.72612 342.17578 845.96045 342.17578 C 927.12052 342.17578 979.56299 302.00824 979.56299 239.84033 L 979.56299 238.9292 C 979.56299 173.61676 922.41742 152.10155 860.62061 138.57422 C 858.04248 138.02344 855.56201 137.48096 853.14404 136.93799 L 853.12939 137.00391 C 852.73096 136.89063 852.33154 136.77783 851.92529 136.68018 C 851.7176 136.6297 851.51044 136.60806 851.30273 136.56152 C 851.27624 136.55204 851.24851 136.51333 851.22217 136.50732 C 786.90583 121.95265 782.08154 111.24559 782.08154 95.749512 L 782.08154 94.839844 C 782.08154 76.94533 802.74612 67.382812 832.32422 67.382813 C 858.2656 67.382813 882.93313 71.78566 910.15576 87.660645 C 916.4331 91.051266 922.6797 92.629395 929.80078 92.629395 C 950.33982 92.629395 966.4292 78.030743 966.4292 59.38623 C 966.4292 44.956557 957.49218 35.141109 949.04297 30.70752 C 914.7891 10.199728 876.93355 0.22998047 833.33203 0.22998047 z M 1145.2617 0.22998047 C 1069.8634 0.22998047 1017.2153 41.190976 1017.2153 99.839355 L 1017.2153 100.75049 C 1017.2153 163.75043 1062.4805 185.9175 1140.7383 202.9292 C 1142.7545 203.34963 1144.6604 203.76517 1146.5625 204.18164 C 1146.8409 204.25656 1147.1055 204.35779 1147.3872 204.42627 C 1148.3638 204.66455 1149.3433 204.84814 1150.3198 205.00049 C 1209.8823 218.35985 1214.6997 229.85158 1214.6997 244.38281 L 1214.6997 245.29248 C 1214.6997 264.83152 1192.476 277.95703 1159.4019 277.95703 C 1124.7495 277.95703 1094.6523 267.99265 1064.5195 246.48486 C 1058.2813 242.28174 1050.9883 240.22998 1042.2305 240.22998 C 1021.6875 240.22998 1005.5933 254.83547 1005.5933 273.47607 C 1005.5933 284.46044 1011.3589 294.73878 1021.0269 300.97705 C 1061.3315 327.93406 1108.6558 342.17578 1157.8901 342.17578 C 1239.0502 342.17578 1291.4927 302.00824 1291.4927 239.84033 L 1291.4927 238.9292 C 1291.4927 173.61676 1234.3471 152.10155 1172.5503 138.57422 C 1169.9683 138.02344 1167.4878 137.48096 1165.0737 136.93799 L 1165.0591 137.00391 C 1164.6567 136.89063 1164.2544 136.77783 1163.8521 136.68018 C 1163.6459 136.63009 1163.44 136.6092 1163.2339 136.56299 C 1163.2068 136.55323 1163.1788 136.51345 1163.1519 136.50732 C 1098.8355 121.95265 1094.0112 111.24559 1094.0112 95.749512 L 1094.0112 94.839844 C 1094.0112 76.94533 1114.6758 67.382812 1144.2539 67.382813 C 1170.1914 67.382813 1194.8599 71.78566 1222.0825 87.660645 C 1228.3638 91.051266 1234.6094 92.629395 1241.7305 92.629395 C 1262.2695 92.629395 1278.3589 78.030743 1278.3589 59.38623 C 1278.3589 44.956557 1269.4175 35.141109 1260.9683 30.70752 C 1226.7144 10.199728 1188.8632 0.22998047 1145.2617 0.22998047 z M 1361.1284 2.746582 C 1360.9995 2.746582 1360.8628 2.7583005 1360.73 2.7700195 C 1341.2964 3.332519 1325.7144 19.246114 1325.7144 38.8125 L 1325.7144 301.41357 C 1325.7144 321.28074 1341.7779 337.39502 1361.6294 337.48096 C 1361.6333 337.48096 1361.6445 337.48389 1361.6484 337.48389 L 1563.5112 337.48389 C 1582.4018 337.48389 1597.8984 325.15965 1599.457 306.67529 C 1601.2617 285.19875 1583.8554 267.54346 1562.2969 267.54346 L 1395.6563 267.54346 L 1395.6563 204.01172 L 1515.9375 204.01172 C 1535.7187 204.01172 1551.75 187.97654 1551.75 168.19922 C 1551.75 148.42189 1535.7187 132.38672 1515.9375 132.38672 L 1395.6563 132.38672 L 1395.6563 72.684082 L 1559.5005 72.684082 C 1579.4184 72.684082 1595.5664 58.734355 1595.5664 38.8125 C 1595.5664 18.894551 1579.4184 2.746582 1559.5005 2.746582 L 1361.1284 2.746582 z M 498.89648 196.95557 C 499.68073 197.43797 500.48427 197.88705 501.28857 198.33545 C 500.48059 197.89347 499.68428 197.43171 498.89648 196.95557 z " />
</svg>
