<?xml version="1.0" encoding="UTF-8" standalone="no"?>
<svg
   width="400pt"
   height="400pt"
   viewBox="0 0 400 400"
   version="1.1"
   id="svg3"
   sodipodi:docname="logo_nysse_n.svg"
   inkscape:version="1.3.2 (091e20e, 2023-11-25, custom)"
   xmlns:inkscape="http://www.inkscape.org/namespaces/inkscape"
   xmlns:sodipodi="http://sodipodi.sourceforge.net/DTD/sodipodi-0.dtd"
   xmlns="http://www.w3.org/2000/svg"
   xmlns:svg="http://www.w3.org/2000/svg">
  <defs
     id="defs3" />
  <sodipodi:namedview
     id="namedview3"
     pagecolor="#505050"
     bordercolor="#eeeeee"
     borderopacity="1"
     inkscape:showpageshadow="0"
     inkscape:pageopacity="0"
     inkscape:pagecheckerboard="0"
     inkscape:deskcolor="#505050"
     inkscape:document-units="pt"
     inkscape:zoom="2.214375"
     inkscape:cx="266.44087"
     inkscape:cy="266.66667"
     inkscape:window-width="5120"
     inkscape:window-height="1377"
     inkscape:window-x="-8"
     inkscape:window-y="-8"
     inkscape:window-maximized="1"
     inkscape:current-layer="svg3" />
  <path
     fill-rule="nonzero"
     fill="rgb(10.198975%, 28.999329%, 56.098938%)"
     fill-opacity="1"
     d="M 397.8125 345.226562 C 399.191406 349.351562 399.894531 353.535156 399.988281 357.664062 L 399.988281 42.261719 C 399.988281 18.925781 381.074219 0.0117188 357.734375 0.0117188 C 334.402344 0.0117188 315.484375 18.925781 315.484375 42.261719 L 315.484375 231.402344 C 350.761719 262.707031 383.132812 301.28125 397.8125 345.226562 "
     id="path1" />
  <path
     fill-rule="nonzero"
     fill="rgb(10.198975%, 28.999329%, 56.098938%)"
     fill-opacity="1"
     d="M 2.128906 54.121094 C 0.796875 50.082031 0.113281 45.988281 0.015625 41.9375 C 0.015625 42.046875 0.00390625 42.152344 0.00390625 42.257812 L 0.00390625 357.738281 C 0.00390625 381.070312 18.917969 399.988281 42.257812 399.988281 C 65.589844 399.988281 84.507812 381.070312 84.507812 357.738281 L 84.507812 168.625 C 34.464844 124.386719 11.984375 84.035156 2.128906 54.121094 "
     id="path2" />
  <path
     fill-rule="nonzero"
     fill="rgb(10.998535%, 34.098816%, 81.199646%)"
     fill-opacity="1"
     d="M 357.730469 400 C 340.046875 400 323.570312 388.816406 317.664062 371.121094 C 303.382812 328.359375 252.785156 279.324219 178.851562 236.578125 C 59.332031 167.480469 16.78125 99.957031 2.128906 55.484375 C -5.179688 33.316406 6.871094 9.433594 29.03125 2.128906 C 51.203125 -5.164062 75.082031 6.878906 82.386719 29.042969 C 96.390625 71.554688 146.96875 120.535156 221.144531 163.421875 C 274.945312 194.523438 369.4375 259.390625 397.8125 344.355469 C 405.207031 366.488281 393.25 390.421875 371.121094 397.8125 C 366.683594 399.296875 362.167969 400 357.730469 400 "
     id="path3" />
</svg>
