<?xml version="1.0" encoding="UTF-8" standalone="no"?>
<svg
   width="1600pt"
   height="343pt"
   viewBox="0 0 1600 343"
   version="1.1"
   id="svg11"
   xmlns="http://www.w3.org/2000/svg"
   xmlns:svg="http://www.w3.org/2000/svg">
  <defs
     id="defs11" />
  <path
     fill-rule="nonzero"
     fill="rgb(10.198975%, 28.999329%, 56.098938%)"
     fill-opacity="1"
     d="M 828.8125 202.929688 C 831.378906 203.464844 833.832031 203.992188 836.226562 204.523438 C 843.085938 194.394531 850.71875 184.09375 854.457031 172.460938 C 858.265625 160.609375 854.222656 137.191406 851.222656 136.507812 C 786.90625 121.953125 782.082031 111.246094 782.082031 95.75 L 782.082031 94.839844 C 782.082031 76.945312 802.746094 67.382812 832.324219 67.382812 C 858.265625 67.382812 882.933594 71.785156 910.15625 87.660156 C 916.433594 91.050781 922.679688 92.628906 929.800781 92.628906 C 950.339844 92.628906 966.429688 78.03125 966.429688 59.386719 C 966.429688 44.957031 957.492188 35.140625 949.042969 30.707031 C 914.789062 10.199219 876.933594 0.230469 833.332031 0.230469 C 757.9375 0.230469 705.285156 41.191406 705.285156 99.839844 L 705.285156 100.75 C 705.285156 163.75 750.554688 185.917969 828.8125 202.929688 "
     id="path1" />
  <path
     fill-rule="nonzero"
     fill="rgb(10.998535%, 34.098816%, 81.199646%)"
     fill-opacity="1"
     d="M 860.621094 138.574219 C 858.042969 138.023438 855.5625 137.480469 853.144531 136.9375 L 853.128906 137.003906 C 852.730469 136.890625 852.332031 136.777344 851.925781 136.679688 C 833.214844 132.132812 814.363281 143.613281 809.816406 162.320312 C 805.269531 181.03125 816.75 199.878906 835.457031 204.425781 C 836.4375 204.664062 837.414062 204.847656 838.390625 205 C 897.953125 218.359375 902.769531 229.851562 902.769531 244.382812 L 902.769531 245.292969 C 902.769531 264.832031 880.546875 277.957031 847.476562 277.957031 C 812.820312 277.957031 782.722656 267.992188 752.589844 246.484375 C 746.355469 242.28125 739.0625 240.230469 730.300781 240.230469 C 709.757812 240.230469 693.664062 254.835938 693.664062 273.476562 C 693.664062 284.460938 699.433594 294.738281 709.097656 300.976562 C 749.40625 327.933594 796.726562 342.175781 845.960938 342.175781 C 927.121094 342.175781 979.5625 302.007812 979.5625 239.839844 L 979.5625 238.929688 C 979.5625 173.617188 922.417969 152.101562 860.621094 138.574219 "
     id="path2" />
  <path
     fill-rule="nonzero"
     fill="rgb(10.198975%, 28.999329%, 56.098938%)"
     fill-opacity="1"
     d="M 1140.738281 202.929688 C 1143.304688 203.464844 1145.761719 203.992188 1148.152344 204.523438 C 1155.015625 194.394531 1162.648438 184.09375 1166.386719 172.460938 C 1170.191406 160.609375 1166.152344 137.191406 1163.152344 136.507812 C 1098.835938 121.953125 1094.011719 111.246094 1094.011719 95.75 L 1094.011719 94.839844 C 1094.011719 76.945312 1114.675781 67.382812 1144.253906 67.382812 C 1170.191406 67.382812 1194.859375 71.785156 1222.082031 87.660156 C 1228.363281 91.050781 1234.609375 92.628906 1241.730469 92.628906 C 1262.269531 92.628906 1278.359375 78.03125 1278.359375 59.386719 C 1278.359375 44.957031 1269.417969 35.140625 1260.96875 30.707031 C 1226.714844 10.199219 1188.863281 0.230469 1145.261719 0.230469 C 1069.863281 0.230469 1017.214844 41.191406 1017.214844 99.839844 L 1017.214844 100.75 C 1017.214844 163.75 1062.480469 185.917969 1140.738281 202.929688 "
     id="path3" />
  <path
     fill-rule="nonzero"
     fill="rgb(10.998535%, 34.098816%, 81.199646%)"
     fill-opacity="1"
     d="M 1172.550781 138.574219 C 1169.96875 138.023438 1167.488281 137.480469 1165.074219 136.9375 L 1165.058594 137.003906 C 1164.65625 136.890625 1164.253906 136.777344 1163.851562 136.679688 C 1145.140625 132.132812 1126.289062 143.613281 1121.742188 162.320312 C 1117.195312 181.03125 1128.679688 199.878906 1147.386719 204.425781 C 1148.363281 204.664062 1149.34375 204.847656 1150.320312 205 C 1209.882812 218.359375 1214.699219 229.851562 1214.699219 244.382812 L 1214.699219 245.292969 C 1214.699219 264.832031 1192.476562 277.957031 1159.402344 277.957031 C 1124.75 277.957031 1094.652344 267.992188 1064.519531 246.484375 C 1058.28125 242.28125 1050.988281 240.230469 1042.230469 240.230469 C 1021.6875 240.230469 1005.59375 254.835938 1005.59375 273.476562 C 1005.59375 284.460938 1011.359375 294.738281 1021.027344 300.976562 C 1061.332031 327.933594 1108.65625 342.175781 1157.890625 342.175781 C 1239.050781 342.175781 1291.492188 302.007812 1291.492188 239.839844 L 1291.492188 238.929688 C 1291.492188 173.617188 1234.347656 152.101562 1172.550781 138.574219 "
     id="path4" />
  <path
     fill-rule="nonzero"
     fill="rgb(10.198975%, 28.999329%, 56.098938%)"
     fill-opacity="1"
     d="M 1551.75 168.199219 C 1551.75 148.421875 1535.71875 132.386719 1515.9375 132.386719 L 1395.324219 132.386719 L 1395.324219 204.011719 L 1515.9375 204.011719 C 1535.71875 204.011719 1551.75 187.976562 1551.75 168.199219 "
     id="path5" />
  <path
     fill-rule="nonzero"
     fill="rgb(10.998535%, 34.098816%, 81.199646%)"
     fill-opacity="1"
     d="M 1562.296875 267.542969 L 1395.65625 267.542969 L 1395.65625 72.683594 L 1559.5 72.683594 C 1579.417969 72.683594 1595.566406 58.734375 1595.566406 38.8125 C 1595.566406 18.894531 1579.417969 2.746094 1559.5 2.746094 L 1361.128906 2.746094 C 1361 2.746094 1360.863281 2.757812 1360.730469 2.769531 C 1341.296875 3.332031 1325.714844 19.246094 1325.714844 38.8125 L 1325.714844 301.414062 C 1325.714844 321.28125 1341.777344 337.394531 1361.628906 337.480469 C 1361.632812 337.480469 1361.644531 337.484375 1361.648438 337.484375 L 1563.511719 337.484375 C 1582.402344 337.484375 1597.898438 325.160156 1599.457031 306.675781 C 1601.261719 285.199219 1583.855469 267.542969 1562.296875 267.542969 "
     id="path6" />
  <path
     fill-rule="nonzero"
     fill="rgb(10.198975%, 28.999329%, 56.098938%)"
     fill-opacity="1"
     d="M 532.09375 205.523438 C 531.085938 205.609375 530.078125 205.648438 529.078125 205.648438 C 528.945312 205.648438 528.8125 205.640625 528.671875 205.640625 C 528.539062 205.640625 528.402344 205.648438 528.265625 205.648438 C 527.269531 205.648438 526.265625 205.609375 525.253906 205.523438 C 512.667969 204.480469 502.257812 199.933594 493.15625 193.113281 L 493.15625 306.214844 C 493.15625 326.078125 509.257812 342.179688 529.121094 342.179688 C 548.988281 342.179688 565.085938 326.078125 565.085938 306.214844 L 565.085938 192.425781 C 555.773438 199.628906 545.097656 204.445312 532.09375 205.523438 "
     id="path7" />
  <path
     fill-rule="nonzero"
     fill="rgb(10.998535%, 34.098816%, 81.199646%)"
     fill-opacity="1"
     d="M 681.671875 14.894531 C 670.191406 -1.316406 647.753906 -5.152344 631.535156 6.324219 C 587.117188 37.78125 561.78125 77.214844 543.285156 106.003906 C 538.945312 112.761719 533.636719 121.015625 529.121094 127.171875 C 524.601562 121.015625 519.296875 112.761719 514.957031 106.003906 C 496.457031 77.214844 471.121094 37.78125 426.707031 6.324219 C 410.492188 -5.15625 388.046875 -1.316406 376.574219 14.894531 C 365.089844 31.105469 368.925781 53.550781 385.136719 65.03125 C 418.15625 88.414062 437.429688 118.414062 454.433594 144.886719 C 473.628906 174.757812 491.757812 202.980469 525.699219 205.792969 C 526.710938 205.878906 531.53125 205.878906 532.539062 205.792969 C 566.480469 202.980469 584.609375 174.757812 603.804688 144.886719 C 620.808594 118.414062 640.085938 88.414062 673.105469 65.03125 C 689.3125 53.550781 693.152344 31.105469 681.671875 14.894531 "
     id="path8" />
  <path
     fill-rule="nonzero"
     fill="rgb(10.198975%, 28.999329%, 56.098938%)"
     fill-opacity="1"
     d="M 338.53125 293.691406 C 339.707031 297.203125 340.304688 300.765625 340.386719 304.285156 L 340.386719 35.558594 C 340.386719 15.671875 324.269531 -0.441406 304.386719 -0.441406 C 284.503906 -0.441406 268.386719 15.671875 268.386719 35.558594 L 268.386719 196.707031 C 298.445312 223.378906 326.023438 256.246094 338.53125 293.691406 "
     id="path9" />
  <path
     fill-rule="nonzero"
     fill="rgb(10.198975%, 28.999329%, 56.098938%)"
     fill-opacity="1"
     d="M 1.402344 45.660156 C 0.269531 42.21875 -0.3125 38.730469 -0.398438 35.28125 C -0.398438 35.375 -0.40625 35.464844 -0.40625 35.554688 L -0.40625 304.347656 C -0.40625 324.226562 15.710938 340.34375 35.59375 340.34375 C 55.476562 340.34375 71.59375 324.226562 71.59375 304.347656 L 71.59375 143.21875 C 28.957031 105.527344 9.800781 71.148438 1.402344 45.660156 "
     id="path10" />
  <path
     fill-rule="nonzero"
     fill="rgb(10.998535%, 34.098816%, 81.199646%)"
     fill-opacity="1"
     d="M 304.382812 340.355469 C 289.316406 340.355469 275.277344 330.828125 270.242188 315.75 C 258.074219 279.316406 214.964844 237.539062 151.976562 201.117188 C 50.140625 142.246094 13.890625 84.714844 1.402344 46.820312 C -4.820312 27.9375 5.445312 7.585938 24.324219 1.363281 C 43.214844 -4.847656 63.5625 5.410156 69.785156 24.292969 C 81.71875 60.515625 124.8125 102.246094 188.007812 138.785156 C 233.847656 165.289062 314.355469 220.554688 338.53125 292.945312 C 344.832031 311.800781 334.644531 332.195312 315.789062 338.492188 C 312.011719 339.753906 308.160156 340.355469 304.382812 340.355469 "
     id="path11" />
</svg>
