<?xml version="1.0" encoding="UTF-8" standalone="no"?>
<svg
   width="1600pt"
   height="343pt"
   viewBox="0 0 1600 343"
   version="1.1"
   id="svg11"
   sodipodi:docname="logo_nysse_valkoinen.svg"
   inkscape:version="1.3.2 (091e20e, 2023-11-25, custom)"
   xmlns:inkscape="http://www.inkscape.org/namespaces/inkscape"
   xmlns:sodipodi="http://sodipodi.sourceforge.net/DTD/sodipodi-0.dtd"
   xmlns="http://www.w3.org/2000/svg"
   xmlns:svg="http://www.w3.org/2000/svg">
  <defs
     id="defs11" />
  <sodipodi:namedview
     id="namedview11"
     pagecolor="#505050"
     bordercolor="#eeeeee"
     borderopacity="1"
     inkscape:showpageshadow="0"
     inkscape:pageopacity="0"
     inkscape:pagecheckerboard="0"
     inkscape:deskcolor="#505050"
     inkscape:document-units="pt"
     inkscape:zoom="2.116875"
     inkscape:cx="1066.6667"
     inkscape:cy="228.87511"
     inkscape:window-width="5120"
     inkscape:window-height="1377"
     inkscape:window-x="-8"
     inkscape:window-y="-8"
     inkscape:window-maximized="1"
     inkscape:current-layer="svg11" />
  <path
     fill-rule="nonzero"
     fill="rgb(100%, 100%, 100%)"
     fill-opacity="1"
     d="M 829.226562 203.566406 C 831.792969 204.097656 834.246094 204.628906 836.640625 205.15625 C 843.503906 195.027344 851.136719 184.730469 854.871094 173.097656 C 858.679688 161.246094 854.636719 137.824219 851.636719 137.144531 C 787.320312 122.589844 782.496094 111.878906 782.496094 96.386719 L 782.496094 95.476562 C 782.496094 77.582031 803.160156 68.015625 832.738281 68.015625 C 858.679688 68.015625 883.347656 72.421875 910.570312 88.296875 C 916.851562 91.6875 923.09375 93.261719 930.21875 93.261719 C 950.753906 93.261719 966.847656 78.664062 966.847656 60.019531 C 966.847656 45.589844 957.90625 35.777344 949.457031 31.34375 C 915.203125 10.835938 877.351562 0.863281 833.746094 0.863281 C 758.351562 0.863281 705.699219 41.824219 705.699219 100.476562 L 705.699219 101.382812 C 705.699219 164.382812 750.96875 186.554688 829.226562 203.566406 "
     id="path1" />
  <path
     fill-rule="nonzero"
     fill="rgb(100%, 100%, 100%)"
     fill-opacity="1"
     d="M 861.039062 139.210938 C 858.457031 138.65625 855.976562 138.117188 853.5625 137.574219 L 853.542969 137.640625 C 853.144531 137.523438 852.746094 137.414062 852.339844 137.3125 C 833.628906 132.769531 814.777344 144.25 810.230469 162.953125 C 805.683594 181.664062 817.167969 200.515625 835.871094 205.0625 C 836.851562 205.300781 837.828125 205.484375 838.808594 205.636719 C 898.371094 218.992188 903.183594 230.488281 903.183594 245.019531 L 903.183594 245.929688 C 903.183594 265.46875 880.964844 278.59375 847.890625 278.59375 C 813.238281 278.59375 783.140625 268.628906 753.003906 247.121094 C 746.769531 242.914062 739.476562 240.867188 730.714844 240.867188 C 710.171875 240.867188 694.082031 255.472656 694.082031 274.109375 C 694.082031 285.097656 699.847656 295.375 709.515625 301.609375 C 749.820312 328.566406 797.140625 342.8125 846.378906 342.8125 C 927.535156 342.8125 979.976562 302.644531 979.976562 240.476562 L 979.976562 239.5625 C 979.976562 174.253906 922.832031 152.738281 861.039062 139.210938 "
     id="path2" />
  <path
     fill-rule="nonzero"
     fill="rgb(100%, 100%, 100%)"
     fill-opacity="1"
     d="M 1141.15625 203.566406 C 1143.722656 204.097656 1146.175781 204.628906 1148.570312 205.15625 C 1155.429688 195.027344 1163.0625 184.730469 1166.800781 173.097656 C 1170.609375 161.246094 1166.566406 137.824219 1163.566406 137.144531 C 1099.25 122.589844 1094.425781 111.878906 1094.425781 96.386719 L 1094.425781 95.476562 C 1094.425781 77.582031 1115.089844 68.015625 1144.667969 68.015625 C 1170.609375 68.015625 1195.277344 72.421875 1222.5 88.296875 C 1228.78125 91.6875 1235.023438 93.261719 1242.144531 93.261719 C 1262.683594 93.261719 1278.773438 78.664062 1278.773438 60.019531 C 1278.773438 45.589844 1269.835938 35.777344 1261.386719 31.34375 C 1227.132812 10.835938 1189.277344 0.863281 1145.675781 0.863281 C 1070.28125 0.863281 1017.628906 41.824219 1017.628906 100.476562 L 1017.628906 101.382812 C 1017.628906 164.382812 1062.898438 186.554688 1141.15625 203.566406 "
     id="path3" />
  <path
     fill-rule="nonzero"
     fill="rgb(100%, 100%, 100%)"
     fill-opacity="1"
     d="M 1172.96875 139.210938 C 1170.382812 138.65625 1167.90625 138.117188 1165.488281 137.574219 L 1165.472656 137.640625 C 1165.074219 137.523438 1164.671875 137.414062 1164.269531 137.3125 C 1145.558594 132.769531 1126.707031 144.25 1122.160156 162.953125 C 1117.613281 181.664062 1129.09375 200.515625 1147.800781 205.0625 C 1148.777344 205.300781 1149.757812 205.484375 1150.734375 205.636719 C 1210.296875 218.992188 1215.113281 230.488281 1215.113281 245.019531 L 1215.113281 245.929688 C 1215.113281 265.46875 1192.890625 278.59375 1159.820312 278.59375 C 1125.164062 278.59375 1095.066406 268.628906 1064.933594 247.121094 C 1058.699219 242.914062 1051.40625 240.867188 1042.644531 240.867188 C 1022.101562 240.867188 1006.011719 255.472656 1006.011719 274.109375 C 1006.011719 285.097656 1011.777344 295.375 1021.441406 301.609375 C 1061.75 328.566406 1109.070312 342.8125 1158.304688 342.8125 C 1239.464844 342.8125 1291.90625 302.644531 1291.90625 240.476562 L 1291.90625 239.5625 C 1291.90625 174.253906 1234.761719 152.738281 1172.96875 139.210938 "
     id="path4" />
  <path
     fill-rule="nonzero"
     fill="rgb(100%, 100%, 100%)"
     fill-opacity="1"
     d="M 1552.164062 168.835938 C 1552.164062 149.058594 1536.132812 133.019531 1516.351562 133.019531 L 1395.738281 133.019531 L 1395.738281 204.648438 L 1516.351562 204.648438 C 1536.132812 204.648438 1552.164062 188.609375 1552.164062 168.835938 "
     id="path5" />
  <path
     fill-rule="nonzero"
     fill="rgb(100%, 100%, 100%)"
     fill-opacity="1"
     d="M 1562.714844 268.175781 L 1396.070312 268.175781 L 1396.070312 73.320312 L 1559.914062 73.320312 C 1579.832031 73.320312 1595.984375 59.367188 1595.984375 39.449219 C 1595.984375 19.527344 1579.832031 3.378906 1559.914062 3.378906 L 1361.542969 3.378906 C 1361.417969 3.378906 1361.277344 3.394531 1361.144531 3.40625 C 1341.710938 3.964844 1326.128906 19.882812 1326.128906 39.449219 L 1326.128906 302.050781 C 1326.128906 321.917969 1342.191406 338.03125 1362.042969 338.117188 C 1362.050781 338.117188 1362.058594 338.121094 1362.0625 338.121094 L 1563.929688 338.121094 C 1582.816406 338.121094 1598.3125 325.796875 1599.871094 307.3125 C 1601.675781 285.835938 1584.269531 268.175781 1562.714844 268.175781 "
     id="path6" />
  <path
     fill-rule="nonzero"
     fill="rgb(100%, 100%, 100%)"
     fill-opacity="1"
     d="M 532.511719 206.160156 C 531.5 206.246094 530.492188 206.285156 529.496094 206.285156 C 529.359375 206.285156 529.226562 206.273438 529.085938 206.273438 C 528.953125 206.273438 528.820312 206.285156 528.679688 206.285156 C 527.6875 206.285156 526.683594 206.246094 525.667969 206.160156 C 513.082031 205.113281 502.671875 200.566406 493.570312 193.746094 L 493.570312 306.847656 C 493.570312 326.710938 509.671875 342.816406 529.535156 342.816406 C 549.402344 342.816406 565.5 326.710938 565.5 306.847656 L 565.5 193.058594 C 556.1875 200.261719 545.515625 205.078125 532.511719 206.160156 "
     id="path7" />
  <path
     fill-rule="nonzero"
     fill="rgb(100%, 100%, 100%)"
     fill-opacity="1"
     d="M 682.089844 15.53125 C 670.605469 -0.683594 648.167969 -4.515625 631.949219 6.960938 C 587.535156 38.414062 562.199219 77.847656 543.703125 106.636719 C 539.359375 113.398438 534.054688 121.648438 529.539062 127.808594 C 525.019531 121.648438 519.714844 113.398438 515.375 106.636719 C 496.871094 77.847656 471.535156 38.414062 427.121094 6.960938 C 410.90625 -4.519531 388.464844 -0.683594 376.988281 15.53125 C 365.507812 31.742188 369.339844 54.1875 385.554688 65.664062 C 418.570312 89.046875 437.847656 119.050781 454.851562 145.519531 C 474.046875 175.394531 492.175781 203.617188 526.117188 206.429688 C 527.128906 206.511719 531.949219 206.511719 532.957031 206.429688 C 566.898438 203.617188 585.023438 175.394531 604.21875 145.519531 C 621.226562 119.050781 640.5 89.046875 673.523438 65.664062 C 689.730469 54.1875 693.570312 31.742188 682.089844 15.53125 "
     id="path8" />
  <path
     fill-rule="nonzero"
     fill="rgb(100%, 100%, 100%)"
     fill-opacity="1"
     d="M 338.949219 294.324219 C 340.121094 297.835938 340.722656 301.402344 340.800781 304.917969 L 340.800781 36.191406 C 340.800781 16.308594 324.683594 0.195312 304.800781 0.195312 C 284.921875 0.195312 268.804688 16.308594 268.804688 36.191406 L 268.804688 197.34375 C 298.859375 224.015625 326.441406 256.882812 338.949219 294.324219 "
     id="path9" />
  <path
     fill-rule="nonzero"
     fill="rgb(100%, 100%, 100%)"
     fill-opacity="1"
     d="M 1.816406 46.296875 C 0.683594 42.855469 0.101562 39.367188 0.015625 35.917969 C 0.015625 36.011719 0.0078125 36.101562 0.0078125 36.1875 L 0.0078125 304.980469 C 0.0078125 324.863281 16.125 340.980469 36.011719 340.980469 C 55.890625 340.980469 72.007812 324.863281 72.007812 304.980469 L 72.007812 143.855469 C 29.371094 106.164062 10.21875 71.785156 1.816406 46.296875 "
     id="path10" />
  <path
     fill-rule="nonzero"
     fill="rgb(100%, 100%, 100%)"
     fill-opacity="1"
     d="M 304.796875 340.988281 C 289.730469 340.988281 275.691406 331.464844 270.660156 316.386719 C 258.492188 279.953125 215.378906 238.171875 152.390625 201.753906 C 50.558594 142.878906 14.304688 85.347656 1.820312 47.457031 C -4.40625 28.570312 5.859375 8.21875 24.742188 2 C 43.632812 -4.214844 63.976562 6.042969 70.199219 24.929688 C 82.132812 61.152344 125.226562 102.882812 188.421875 139.421875 C 234.261719 165.921875 314.773438 221.191406 338.949219 293.578125 C 345.246094 312.4375 335.058594 332.828125 316.207031 339.128906 C 312.425781 340.390625 308.578125 340.988281 304.796875 340.988281 "
     id="path11" />
</svg>
