<?xml version="1.0" encoding="UTF-8" standalone="no"?>
<svg
   width="400pt"
   height="400pt"
   viewBox="0 0 400 400"
   version="1.1"
   id="svg4"
   xmlns="http://www.w3.org/2000/svg"
   xmlns:svg="http://www.w3.org/2000/svg">
  <defs
     id="defs4" />
  <path
     fill-rule="nonzero"
     fill="rgb(100%, 100%, 100%)"
     fill-opacity="1"
     d="M 121.984375 350 L 92.761719 350 L 143.429688 311.101562 L 159.230469 311.527344 L 121.984375 350 "
     id="path1" />
  <path
     fill-rule="nonzero"
     fill="rgb(100%, 100%, 100%)"
     fill-opacity="1"
     d="M 278.019531 350 L 307.246094 350 L 256.578125 311.101562 L 240.777344 311.527344 L 278.019531 350 "
     id="path2" />
  <path
     fill-rule="nonzero"
     fill="rgb(100%, 100%, 100%)"
     fill-opacity="1"
     d="M 268.597656 203.355469 C 268.597656 245.710938 225.757812 245.234375 225.757812 245.234375 L 174.085938 245.234375 C 174.085938 245.234375 131.265625 245.679688 131.265625 203.351562 C 131.265625 202.332031 131.269531 199.976562 131.273438 196.855469 C 131.273438 196.855469 131.265625 122.445312 131.265625 118.050781 C 131.265625 94.582031 153.070312 96.105469 153.070312 96.105469 L 246.734375 96.105469 C 246.734375 96.105469 268.597656 94.597656 268.597656 118.058594 C 268.597656 122.445312 268.589844 196.882812 268.589844 196.882812 C 268.597656 200.007812 268.597656 202.367188 268.597656 203.355469 M 255.691406 280.9375 C 248.585938 280.9375 242.84375 275.234375 242.84375 268.148438 C 242.84375 261.050781 248.585938 255.265625 255.691406 255.265625 C 262.796875 255.265625 268.523438 261.050781 268.523438 268.148438 C 268.523438 275.234375 262.796875 280.9375 255.691406 280.9375 M 144.28125 280.9375 C 137.226562 280.9375 131.445312 275.234375 131.445312 268.148438 C 131.445312 261.050781 137.226562 255.265625 144.28125 255.265625 C 151.34375 255.265625 157.027344 261.050781 157.027344 268.148438 C 157.027344 275.234375 151.34375 280.9375 144.28125 280.9375 M 252.980469 79.695312 L 207.136719 79.695312 L 207.136719 64.269531 L 243.839844 64.269531 C 247.777344 64.269531 250.976562 61.078125 250.976562 57.136719 C 250.976562 53.195312 247.777344 50 243.839844 50 L 156.167969 50 C 152.230469 50 149.03125 53.195312 149.03125 57.136719 C 149.03125 61.078125 152.230469 64.269531 156.167969 64.269531 L 192.867188 64.269531 L 192.867188 79.695312 L 147.023438 79.695312 C 129.742188 79.695312 115.394531 93.785156 115.394531 111.164062 L 115.394531 280.480469 C 115.394531 280.480469 115.386719 280.480469 115.386719 280.480469 C 115.386719 280.480469 115.394531 285.753906 115.394531 287.3125 C 115.394531 295.933594 153.269531 302.925781 200.003906 302.925781 C 246.734375 302.925781 284.613281 295.933594 284.613281 287.3125 C 284.613281 286.605469 284.609375 285.160156 284.601562 283.683594 C 284.605469 283.59375 284.613281 283.511719 284.613281 283.425781 L 284.613281 111.164062 C 284.613281 93.785156 270.265625 79.695312 252.980469 79.695312 "
     id="path3" />
  <path
     fill-rule="nonzero"
     fill="rgb(100%, 100%, 100%)"
     fill-opacity="1"
     d="M 320 0 L 80 0 C 35.816406 0 0 35.816406 0 80 L 0 320 C 0 364.183594 35.816406 400 80 400 L 320 400 C 364.183594 400 400 364.183594 400 320 L 400 80 C 400 35.816406 364.183594 0 320 0 Z M 320 20 C 353.085938 20 380 46.914062 380 80 L 380 320 C 380 353.085938 353.085938 380 320 380 L 80 380 C 46.914062 380 20 353.085938 20 320 L 20 80 C 20 46.914062 46.914062 20 80 20 L 320 20 "
     id="path4" />
</svg>
