<?xml version="1.0" encoding="UTF-8" standalone="no"?>
<svg
   width="399.95pt"
   height="399.95pt"
   viewBox="0 0 399.95 399.95"
   version="1.1"
   id="svg3"
   xmlns="http://www.w3.org/2000/svg"
   xmlns:svg="http://www.w3.org/2000/svg">
  <defs
     id="defs1">
    <clipPath
       id="clip-0">
      <path
         clip-rule="nonzero"
         d="M 0 0 L 399.949219 0 L 399.949219 399.949219 L 0 399.949219 Z M 0 0 "
         id="path1" />
    </clipPath>
  </defs>
  <g
     clip-path="url(#clip-0)"
     id="g2">
    <path
       fill-rule="nonzero"
       fill="rgb(100%, 100%, 100%)"
       fill-opacity="1"
       d="M 319.957031 0.00390625 L 79.988281 0.00390625 C 35.8125 0.00390625 0 35.816406 0 79.992188 L 0 319.960938 C 0 364.136719 35.8125 399.949219 79.988281 399.949219 L 319.957031 399.949219 C 364.132812 399.949219 399.945312 364.136719 399.945312 319.960938 L 399.945312 79.992188 C 399.945312 35.816406 364.132812 0.00390625 319.957031 0.00390625 Z M 319.957031 20 C 353.035156 20 379.949219 46.910156 379.949219 79.992188 L 379.949219 319.960938 C 379.949219 353.039062 353.035156 379.953125 319.957031 379.953125 L 79.988281 379.953125 C 46.910156 379.953125 19.996094 353.039062 19.996094 319.960938 L 19.996094 79.992188 C 19.996094 46.910156 46.910156 20 79.988281 20 L 319.957031 20 "
       id="path2" />
  </g>
  <path
     fill-rule="nonzero"
     fill="rgb(100%, 100%, 100%)"
     fill-opacity="1"
     d="M 341.414062 225.644531 C 337.527344 224.503906 333.980469 223.527344 330.476562 222.417969 C 327.789062 221.566406 324.15625 221.277344 322.777344 219.394531 C 321.40625 217.523438 322.261719 210.363281 322.246094 207.550781 C 322.210938 200.652344 322.234375 197.367188 322.234375 189.921875 C 323.554688 190.539062 324.523438 191.027344 325.519531 191.449219 C 330.160156 193.421875 334.828125 195.335938 339.441406 197.367188 C 340.210938 197.710938 341.320312 198.539062 341.328125 199.15625 C 341.453125 207.808594 341.414062 216.464844 341.414062 225.644531 Z M 313.628906 216.933594 C 312.222656 216.550781 311.0625 216.308594 309.949219 215.921875 C 304.855469 214.148438 299.742188 212.402344 294.714844 210.457031 C 293.90625 210.144531 292.945312 208.878906 292.9375 208.046875 C 292.824219 195.996094 292.859375 183.945312 292.863281 171.898438 C 292.867188 171.648438 292.957031 171.394531 293.105469 170.613281 C 296.507812 173.175781 299.546875 175.589844 302.722656 177.8125 C 305.835938 179.984375 309.109375 181.929688 312.265625 184.046875 C 312.839844 184.433594 313.566406 185.167969 313.570312 185.746094 C 313.648438 196.007812 313.628906 206.269531 313.628906 216.933594 Z M 149.6875 265.722656 C 158.382812 263.140625 159.171875 262.765625 166.765625 260.957031 C 183.199219 260.96875 201.46875 260.882812 215.546875 260.917969 C 207.761719 262.867188 206.484375 263.421875 198.953125 265.996094 Z M 166.570312 280.027344 L 110.980469 279.71875 C 115.746094 277.605469 120.632812 275.628906 125.558594 273.777344 L 179.199219 273.777344 C 174.898438 275.71875 170.679688 277.792969 166.570312 280.027344 Z M 116.757812 235.632812 C 110.296875 235.632812 105.058594 230.394531 105.058594 223.933594 C 105.058594 217.46875 110.296875 212.230469 116.757812 212.230469 C 123.222656 212.230469 128.460938 217.46875 128.460938 223.933594 C 128.460938 230.394531 123.222656 235.632812 116.757812 235.632812 Z M 114.722656 184.84375 C 114.722656 176.175781 120.140625 166.664062 125.078125 157.148438 C 139.984375 128.425781 152.140625 113.441406 174.65625 113.363281 C 186.007812 113.320312 181.425781 113.363281 191.304688 113.363281 C 205.992188 113.363281 215.054688 123.09375 215.597656 134.292969 C 216.261719 148.023438 216.191406 142.226562 215.960938 149.386719 C 215.597656 160.582031 215.417969 166.722656 215.417969 166.722656 C 215.417969 186.148438 208.011719 193.734375 184.171875 193.734375 L 127.347656 193.507812 C 117.34375 193.554688 114.722656 190.988281 114.722656 184.84375 Z M 260.535156 138.589844 C 267.464844 146.03125 274.433594 153.433594 281.355469 160.878906 C 281.910156 161.480469 282.566406 162.320312 282.570312 163.050781 C 282.644531 176.671875 282.625 190.296875 282.625 204.515625 C 276.035156 201.515625 267.066406 198.785156 261.019531 195.902344 C 260.355469 195.585938 259.773438 194.421875 259.714844 193.609375 C 258.5625 177.988281 258.808594 140.425781 258.585938 137.273438 C 258.859375 137.0625 260.039062 138.054688 260.535156 138.589844 Z M 183.851562 223.933594 C 183.851562 217.46875 189.089844 212.230469 195.550781 212.230469 C 202.015625 212.230469 207.253906 217.46875 207.253906 223.933594 C 207.253906 230.394531 202.015625 235.632812 195.550781 235.632812 C 189.089844 235.632812 183.851562 230.394531 183.851562 223.933594 Z M 349.949219 193.691406 C 339.203125 189.523438 330.949219 184.328125 321.039062 177.914062 C 308.355469 169.707031 297.410156 159.550781 287.164062 148.558594 C 277.410156 138.101562 276.164062 136.460938 262.316406 122.613281 C 250.382812 110.679688 241.464844 102.589844 211.5625 101.984375 C 202.230469 101.984375 191.09375 101.621094 174.597656 101.5625 C 152.488281 101.480469 137.527344 111.230469 119.601562 142.300781 C 101.808594 173.144531 95.25 190.507812 94.40625 194.460938 C 92.78125 202.042969 91.035156 214.351562 91.515625 228.957031 C 92.136719 247.890625 100.574219 260.050781 115.035156 259.464844 C 118.445312 259.328125 126.621094 259.242188 137.378906 259.195312 C 107.027344 266.773438 70.722656 284.132812 49.992188 298.390625 L 78.476562 298.390625 C 82.96875 294.898438 87.980469 291.625 93.34375 288.5625 L 152.542969 288.5625 C 148.128906 291.5625 143.882812 294.777344 139.824219 298.238281 L 169.921875 298.390625 C 217.964844 260.230469 232.054688 260.90625 262.4375 258.367188 C 296.941406 255.414062 311.84375 254.820312 349.949219 256.597656 C 349.992188 256.347656 349.65625 196.609375 349.949219 193.691406 "
     id="path3" />
</svg>
