<?xml version="1.0" encoding="UTF-8" standalone="no"?>
<svg
   width="400.19pt"
   height="400.19pt"
   viewBox="0 0 400.19 400.19"
   version="1.1"
   id="svg2"
   xmlns="http://www.w3.org/2000/svg"
   xmlns:svg="http://www.w3.org/2000/svg">
  <defs
     id="defs2" />
  <path
     fill-rule="nonzero"
     fill="rgb(100%, 100%, 100%)"
     fill-opacity="1"
     d="M 320.152344 -0.00390625 L 80.039062 -0.00390625 C 35.835938 -0.00390625 0 35.832031 0 80.035156 L 0 320.152344 C 0 364.355469 35.835938 400.1875 80.039062 400.1875 L 320.152344 400.1875 C 364.355469 400.1875 400.191406 364.355469 400.191406 320.152344 L 400.191406 80.035156 C 400.191406 35.832031 364.355469 -0.00390625 320.152344 -0.00390625 Z M 320.152344 20.007812 C 353.253906 20.007812 380.183594 46.9375 380.183594 80.035156 L 380.183594 320.152344 C 380.183594 353.25 353.253906 380.179688 320.152344 380.179688 L 80.039062 380.179688 C 46.9375 380.179688 20.011719 353.25 20.011719 320.152344 L 20.011719 80.035156 C 20.011719 46.9375 46.9375 20.007812 80.039062 20.007812 L 320.152344 20.007812 "
     id="path1" />
  <path
     fill-rule="nonzero"
     fill="rgb(100%, 100%, 100%)"
     fill-opacity="1"
     d="M 299.03125 179.039062 C 299.03125 234.144531 243.082031 233.546875 243.082031 233.546875 L 156.894531 233.546875 C 156.894531 233.546875 100.96875 234.113281 100.96875 179.007812 C 100.96875 177.691406 100.976562 174.5625 100.980469 170.496094 C 100.980469 170.496094 100.96875 116.339844 100.96875 110.679688 C 100.96875 80.070312 129.449219 82.074219 129.449219 82.074219 L 270.527344 82.074219 C 270.527344 82.074219 299.03125 80.09375 299.03125 110.703125 C 299.03125 116.363281 299.019531 170.601562 299.019531 170.601562 C 299.027344 174.667969 299.03125 177.722656 299.03125 179.039062 M 281.914062 282.847656 C 272.675781 282.847656 265.1875 275.359375 265.1875 266.121094 C 265.1875 256.882812 272.675781 249.394531 281.914062 249.394531 C 291.152344 249.394531 298.640625 256.882812 298.640625 266.121094 C 298.640625 275.359375 291.152344 282.847656 281.914062 282.847656 M 246.203125 269.839844 L 153.273438 269.839844 C 151.222656 269.839844 149.558594 268.175781 149.558594 266.121094 C 149.558594 264.070312 151.222656 262.40625 153.273438 262.40625 L 246.203125 262.40625 C 248.253906 262.40625 249.921875 264.070312 249.921875 266.121094 C 249.921875 268.175781 248.253906 269.839844 246.203125 269.839844 M 246.203125 286.566406 L 153.273438 286.566406 C 151.222656 286.566406 149.558594 284.902344 149.558594 282.847656 C 149.558594 280.796875 151.222656 279.132812 153.273438 279.132812 L 246.203125 279.132812 C 248.253906 279.132812 249.921875 280.796875 249.921875 282.847656 C 249.921875 284.902344 248.253906 286.566406 246.203125 286.566406 M 117.945312 282.847656 C 108.707031 282.847656 101.21875 275.359375 101.21875 266.121094 C 101.21875 256.882812 108.707031 249.394531 117.945312 249.394531 C 127.183594 249.394531 134.671875 256.882812 134.671875 266.121094 C 134.671875 275.359375 127.183594 282.847656 117.945312 282.847656 M 278.644531 60.699219 L 121.566406 60.699219 C 98.933594 60.699219 80.21875 79.039062 80.21875 101.671875 L 80.21875 286.042969 C 80.21875 293.613281 86.707031 299.527344 94.257812 299.527344 L 100.664062 299.527344 L 100.664062 332.652344 C 100.664062 336.425781 103.878906 339.484375 107.644531 339.484375 L 135.578125 339.484375 C 139.347656 339.484375 142.480469 336.425781 142.480469 332.652344 L 142.480469 299.527344 L 256.78125 299.527344 L 256.78125 332.652344 C 256.78125 336.425781 260.230469 339.484375 263.996094 339.484375 L 291.933594 339.484375 C 295.699219 339.484375 298.601562 336.425781 298.601562 332.652344 L 298.601562 299.527344 L 305.933594 299.527344 C 313.492188 299.527344 319.972656 293.613281 319.972656 286.042969 L 319.972656 101.671875 C 319.972656 79.039062 301.238281 60.699219 278.644531 60.699219 "
     id="path2" />
</svg>
