<?xml version="1.0" encoding="UTF-8" standalone="no"?>
<svg
   width="400pt"
   height="400pt"
   viewBox="0 0 400 400"
   version="1.1"
   id="svg4"
   sodipodi:docname="reitit.svg"
   inkscape:version="1.3.2 (091e20e, 2023-11-25, custom)"
   xmlns:inkscape="http://www.inkscape.org/namespaces/inkscape"
   xmlns:sodipodi="http://sodipodi.sourceforge.net/DTD/sodipodi-0.dtd"
   xmlns="http://www.w3.org/2000/svg"
   xmlns:svg="http://www.w3.org/2000/svg">
  <defs
     id="defs4" />
  <sodipodi:namedview
     id="namedview4"
     pagecolor="#505050"
     bordercolor="#eeeeee"
     borderopacity="1"
     inkscape:showpageshadow="0"
     inkscape:pageopacity="0"
     inkscape:pagecheckerboard="0"
     inkscape:deskcolor="#505050"
     inkscape:document-units="pt"
     inkscape:zoom="2.214375"
     inkscape:cx="266.89246"
     inkscape:cy="266.66667"
     inkscape:window-width="1343"
     inkscape:window-height="1237"
     inkscape:window-x="1767"
     inkscape:window-y="122"
     inkscape:window-maximized="0"
     inkscape:current-layer="svg4" />
  <path
     fill-rule="nonzero"
     fill="rgb(100%, 100%, 100%)"
     fill-opacity="1"
     d="M 320 0 L 80 0 C 35.816406 0 0 35.816406 0 80 L 0 320 C 0 364.183594 35.816406 400 80 400 L 320 400 C 364.183594 400 400 364.183594 400 320 L 400 80 C 400 35.816406 364.183594 0 320 0 Z M 320 20 C 353.085938 20 380 46.914062 380 80 L 380 320 C 380 353.085938 353.085938 380 320 380 L 80 380 C 46.914062 380 20 353.085938 20 320 L 20 80 C 20 46.914062 46.914062 20 80 20 L 320 20 "
     id="path1" />
  <path
     fill-rule="nonzero"
     fill="rgb(100%, 100%, 100%)"
     fill-opacity="1"
     d="M 263.605469 200.683594 L 254.488281 185.9375 C 261.679688 181.492188 269.625 179.238281 278.105469 179.238281 C 284.644531 179.238281 291.382812 180.609375 298.144531 183.3125 L 291.703125 199.410156 C 281.328125 195.261719 271.667969 195.703125 263.605469 200.683594 Z M 229.359375 242.734375 C 228.996094 240.160156 228.8125 237.503906 228.8125 234.84375 C 228.8125 222.550781 232.621094 210.289062 239.535156 200.316406 L 253.78125 210.199219 C 248.933594 217.191406 246.148438 226.175781 246.148438 234.84375 C 246.148438 236.699219 246.277344 238.542969 246.527344 240.320312 Z M 258.285156 296.707031 L 241.546875 292.199219 C 242.203125 289.746094 242.539062 287.128906 242.539062 284.410156 C 242.539062 277.351562 240.363281 269.78125 236.070312 261.90625 L 251.296875 253.609375 C 256.988281 264.058594 259.878906 274.421875 259.878906 284.410156 C 259.878906 288.648438 259.34375 292.785156 258.285156 296.707031 Z M 186.875 326.226562 C 174.726562 322.386719 162.609375 315.761719 150.871094 306.535156 L 161.578125 292.902344 C 171.675781 300.835938 181.945312 306.484375 192.097656 309.691406 Z M 210.15625 330 C 208.769531 330 207.347656 329.957031 205.9375 329.867188 L 207.007812 312.5625 C 218.675781 313.28125 228.847656 309.949219 235.25 303.339844 L 247.703125 315.40625 C 238.582031 324.816406 225.246094 330 210.15625 330 "
     id="path2" />
  <path
     fill-rule="nonzero"
     fill="rgb(100%, 100%, 100%)"
     fill-opacity="1"
     d="M 132.816406 214.765625 C 117.496094 214.765625 105.078125 202.347656 105.078125 187.027344 C 105.078125 171.707031 117.496094 159.285156 132.816406 159.285156 C 148.140625 159.285156 160.558594 171.707031 160.558594 187.027344 C 160.558594 202.347656 148.140625 214.765625 132.816406 214.765625 Z M 132.808594 126.347656 C 98.34375 126.347656 70.402344 154.296875 70.402344 188.753906 C 70.402344 191 70.402344 193.101562 70.402344 195.296875 C 70.402344 234.703125 132.808594 295.386719 132.808594 295.386719 C 132.808594 295.386719 195.234375 234.703125 195.234375 195.296875 C 195.234375 193.230469 195.234375 190.867188 195.234375 188.753906 C 195.234375 154.296875 167.28125 126.347656 132.808594 126.347656 "
     id="path3" />
  <path
     fill-rule="nonzero"
     fill="rgb(100%, 100%, 100%)"
     fill-opacity="1"
     d="M 294.390625 119.878906 C 285.746094 119.878906 278.742188 112.871094 278.742188 104.230469 C 278.742188 95.589844 285.746094 88.582031 294.390625 88.582031 C 303.03125 88.582031 310.039062 95.589844 310.039062 104.230469 C 310.039062 112.871094 303.03125 119.878906 294.390625 119.878906 Z M 294.386719 70 C 274.941406 70 259.179688 85.769531 259.179688 105.203125 C 259.179688 106.472656 259.179688 107.65625 259.179688 108.894531 C 259.179688 131.125 294.386719 165.355469 294.386719 165.355469 C 294.386719 165.355469 329.597656 131.125 329.597656 108.894531 C 329.597656 107.730469 329.597656 106.394531 329.597656 105.203125 C 329.597656 85.769531 313.832031 70 294.386719 70 "
     id="path4" />
</svg>
