<?xml version="1.0" encoding="UTF-8" standalone="no"?>
<svg
   width="401.01pt"
   height="401.01pt"
   viewBox="0 0 401.01 401.01"
   version="1.1"
   id="svg2"
   xmlns="http://www.w3.org/2000/svg"
   xmlns:svg="http://www.w3.org/2000/svg">
  <defs
     id="defs2" />
  <path
     fill-rule="nonzero"
     fill="rgb(100%, 100%, 100%)"
     fill-opacity="1"
     d="M 320.808594 0.00390625 L 80.203125 0.00390625 C 35.90625 0.00390625 0 35.910156 0 80.203125 L 0 320.808594 C 0 365.101562 35.90625 401.011719 80.203125 401.011719 L 320.808594 401.011719 C 365.101562 401.011719 401.007812 365.101562 401.007812 320.808594 L 401.007812 80.203125 C 401.007812 35.910156 365.101562 0.00390625 320.808594 0.00390625 Z M 320.808594 20.050781 C 353.972656 20.050781 380.957031 47.035156 380.957031 80.203125 L 380.957031 320.808594 C 380.957031 353.976562 353.972656 380.957031 320.808594 380.957031 L 80.203125 380.957031 C 47.035156 380.957031 20.050781 353.976562 20.050781 320.808594 L 20.050781 80.203125 C 20.050781 47.035156 47.035156 20.050781 80.203125 20.050781 L 320.808594 20.050781 "
     id="path1" />
  <path
     fill-rule="nonzero"
     fill="rgb(100%, 100%, 100%)"
     fill-opacity="1"
     d="M 64.949219 243.695312 C 64.949219 236.183594 66.871094 229.113281 70.230469 222.925781 L 101.746094 253.492188 C 103.351562 255.273438 106.199219 256.351562 108.648438 256.351562 L 150.484375 256.351562 C 145.039062 274.292969 128.351562 287.398438 108.648438 287.398438 C 84.550781 287.398438 64.949219 267.792969 64.949219 243.695312 Z M 152.289062 241.53125 L 120.199219 241.53125 L 135.140625 208.960938 C 145.058594 216.539062 151.636719 228.261719 152.289062 241.53125 Z M 141.429688 195.242188 L 151.828125 172.566406 L 179.835938 241.53125 L 167.132812 241.53125 C 166.417969 222.285156 156.390625 205.390625 141.429688 195.242188 Z M 273.726562 204.167969 L 287.203125 246.636719 C 288.449219 250.535156 292.609375 252.691406 296.511719 251.457031 C 300.410156 250.226562 302.578125 246.054688 301.335938 242.152344 L 288.015625 200.207031 C 289.449219 200.066406 290.894531 199.996094 292.359375 199.996094 C 316.457031 199.996094 336.0625 219.601562 336.0625 243.695312 C 336.0625 267.792969 316.457031 287.398438 292.359375 287.398438 C 268.273438 287.398438 248.667969 267.792969 248.667969 243.695312 C 248.667969 226.257812 258.925781 211.164062 273.726562 204.167969 Z M 286.242188 125.796875 L 318.757812 125.796875 L 313.316406 163.886719 L 293.519531 163.824219 Z M 50.125 243.695312 C 50.125 275.964844 76.378906 302.21875 108.648438 302.21875 C 136.578125 302.21875 159.992188 282.554688 165.796875 256.351562 L 190.675781 256.351562 C 191.558594 256.363281 192.570312 256.210938 193.503906 255.859375 C 193.585938 255.820312 193.664062 255.789062 193.746094 255.761719 C 194.957031 255.238281 195.960938 254.445312 196.714844 253.472656 L 265.046875 176.855469 L 269.214844 189.945312 C 248.425781 198.933594 233.847656 219.648438 233.847656 243.695312 C 233.847656 275.964844 260.097656 302.21875 292.359375 302.21875 C 324.628906 302.21875 350.882812 275.964844 350.882812 243.695312 C 350.882812 211.425781 324.628906 185.175781 292.359375 185.175781 C 289.339844 185.175781 286.363281 185.40625 283.464844 185.847656 C 283.464844 185.847656 281.292969 179.324219 279.109375 172.816406 L 280.09375 172.804688 L 317.214844 172.925781 C 317.21875 172.925781 317.226562 172.925781 317.230469 172.925781 C 319.472656 172.925781 321.378906 171.273438 321.695312 169.050781 L 328.429688 121.925781 C 328.613281 120.628906 328.226562 119.316406 327.371094 118.328125 C 326.511719 117.34375 325.269531 116.773438 323.960938 116.773438 L 280.785156 116.773438 C 279.441406 116.773438 278.164062 117.375 277.308594 118.410156 C 276.449219 119.449219 276.101562 120.8125 276.355469 122.132812 L 284.324219 163.792969 L 280.046875 163.78125 L 276.082031 163.832031 C 275.320312 161.59375 274.789062 160.058594 274.710938 159.894531 L 265.144531 107.929688 C 264.28125 105.203125 261.925781 103.214844 259.097656 102.824219 L 230.394531 98.863281 C 226.335938 98.304688 222.605469 101.148438 222.042969 105.203125 C 221.480469 109.253906 224.320312 112.992188 228.371094 113.554688 L 250.421875 116.875 L 260.625 163.90625 C 260.625 163.90625 253.160156 172.296875 234.484375 193.980469 C 215.855469 215.609375 184.371094 215.21875 184.371094 215.21875 L 155.347656 141.84375 L 175.996094 141.84375 C 180.085938 141.84375 183.40625 138.535156 183.40625 134.433594 C 183.40625 130.34375 180.085938 127.023438 175.996094 127.023438 L 126.519531 127.023438 C 122.425781 127.023438 119.109375 130.34375 119.109375 134.433594 C 119.109375 138.535156 122.425781 141.84375 126.519531 141.84375 L 139.351562 141.84375 L 144.238281 153.878906 C 143.964844 154.257812 143.734375 154.667969 143.535156 155.101562 L 128.203125 188.523438 C 122.085938 186.355469 115.507812 185.175781 108.648438 185.175781 C 76.378906 185.175781 50.125 211.425781 50.125 243.695312 "
     id="path2" />
</svg>
